:SAMPLES-PER-SECOND 30
:FULLY-SPECIFIED
:DEGREES
84
root  18.9669 42.8324 -0.51796 -61.7613 86.6494 -63.9681
RightUpLeg  -9.3758 2.89268 3.46074
RightLeg  32.5442 8.32529 -1.00714
RightFoot  35.1506 -2.45932 5.45734
RightToes  1.74622e-010 -3.18055e-015 8.94531e-016
Spine  -11.7986 -1.59981 -1.38651
Spine1  19.7694 -2.76367 3.29573
HEad  -12.0898 1.68704 3.04331
LeftShoulder1  0 -2.69403e-036 -1.28585e-037
LeftArm  25.5174 55.8643 -81.7642
LeftForeArm  -50.137 -27.2124 17.418
LeftHand  0.932834 6.58669 -4.27539
RightShoulder  -2.48481e-017 0 -8.08114e-019
RightArm  39.3378 -55.926 84.167
RightForeArm  -47.5979 21.5962 -20.9186
RightHand  1.75557 -12.8539 -8.5557
LeftUpLeg  -9.76165 -10.2473 -0.801395
LeftLeg  32.2009 -7.81676 1.61449
LeftFoot  28.2418 2.72594 -6.92738
LeftToes  -8.00353e-011 5.68142e-011 4.78552e-012
85
root  20.4134 44.0764 -0.612407 -62.5844 86.4663 -64.5527
RightUpLeg  -11.1418 4.12269 3.70656
RightLeg  34.1545 4.52368 -3.94314
RightFoot  29.256 -0.338809 0.848271
RightToes  1.74622e-010 -3.18055e-015 8.94531e-016
Spine  -8.16417 -1.47446 -1.44081
Spine1  18.1939 -2.67811 3.43335
HEad  -13.1208 1.57704 3.53708
LeftShoulder1  0 -2.69403e-036 -1.28585e-037
LeftArm  24.0943 57.306 -81.3375
LeftForeArm  -47.2425 -28.745 18.13
LeftHand  0.900227 6.25823 -4.27946
RightShoulder  -2.48481e-017 0 -8.08114e-019
RightArm  37.5041 -57.5476 84.224
RightForeArm  -48.612 22.1148 -21.246
RightHand  1.78518 -13.0644 -8.42659
LeftUpLeg  -12.4445 -12.1408 0.0131337
LeftLeg  33.1992 -9.12993 0.793608
LeftFoot  22.9465 2.47128 -7.30227
LeftToes  -8.00353e-011 5.68142e-011 4.78552e-012
86
root  21.7649 45.0311 -0.673847 -52.8381 86.674 -54.0346
RightUpLeg  -12.5728 4.76794 3.41452
RightLeg  34.5554 2.71497 -5.36906
RightFoot  23.4847 0.714424 -2.18288
RightToes  1.74622e-010 -3.18055e-015 8.94531e-016
Spine  -3.95419 -1.35129 -2.79696
Spine1  17.3192 -2.62089 3.43467
HEad  -13.6445 2.20955 4.19763
LeftShoulder1  0 -2.69403e-036 -1.28585e-037
LeftArm  23.6448 57.6968 -81.4155
LeftForeArm  -47.9805 -29.3585 18.332
LeftHand  0.918137 6.54866 -2.89403
RightShoulder  -2.48481e-017 0 -8.08114e-019
RightArm  38.677 -57.466 85.3012
RightForeArm  -51.0902 21.6737 -20.7437
RightHand  1.73059 -13.1686 -7.22846
LeftUpLeg  -13.8919 -14.7596 0.257216
LeftLeg  30.8485 -6.80235 2.1169
LeftFoot  18.6697 2.0858 -7.04936
LeftToes  -8.00353e-011 5.68142e-011 4.78552e-012
87
root  23.1272 45.654 -0.708101 -42.2668 86.83 -43.3303
RightUpLeg  -14.1979 4.92447 3.22668
RightLeg  32.0607 3.78063 -4.09647
RightFoot  23.1257 0.147412 -0.473847
RightToes  1.74622e-010 -3.18055e-015 8.94531e-016
Spine  -0.848094 -1.32144 -4.98035
Spine1  16.7949 -2.94205 4.48128
HEad  -13.1221 3.26868 4.6773
LeftShoulder1  0 -2.69403e-036 -1.28585e-037
LeftArm  23.9395 57.9942 -81.648
LeftForeArm  -49.2506 -29.4792 18.3192
LeftHand  0.939859 6.79193 -1.94573
RightShoulder  -2.48481e-017 0 -8.08114e-019
RightArm  41.4984 -57.0865 85.9592
RightForeArm  -51.7314 21.4371 -20.1993
RightHand  1.60004 -12.875 -5.81518
LeftUpLeg  -15.1787 -16.9831 0.903728
LeftLeg  25.7757 -4.15521 2.81851
LeftFoot  17.1264 1.54382 -5.46166
LeftToes  -8.00353e-011 5.68142e-011 4.78552e-012
88
root  24.5345 45.8384 -0.738281 -41.1234 86.8746 -42.9023
RightUpLeg  -16.134 4.70386 3.6371
RightLeg  27.8009 7.03974 -1.45905
RightFoot  23.844 -0.896074 2.65597
RightToes  1.74622e-010 -3.18055e-015 8.94531e-016
Spine  1.0671 -1.4168 -7.10989
Spine1  16.5139 -3.66669 6.36822
HEad  -13.1144 4.64141 4.7303
LeftShoulder1  0 -2.69403e-036 -1.28585e-037
LeftArm  25.3703 57.9585 -81.9076
LeftForeArm  -49.2091 -28.9383 18.1121
LeftHand  0.922489 6.60176 -2.68182
RightShoulder  -2.48481e-017 0 -8.08114e-019
RightArm  44.0316 -57.062 86.0249
RightForeArm  -52.017 21.4596 -20.2069
RightHand  1.49563 -12.4319 -5.12926
LeftUpLeg  -17.3619 -17.7329 2.28616
LeftLeg  21.1094 -3.3433 2.29868
LeftFoot  15.2236 1.12583 -4.22956
LeftToes  -8.00353e-011 5.68142e-011 4.78552e-012
89
root  25.9678 45.6164 -0.790872 -46.5151 86.7815 -49.3163
RightUpLeg  -18.156 3.6025 4.61881
RightLeg  23.4922 11.0772 0.867548
RightFoot  21.0355 -1.25819 4.0701
RightToes  1.74622e-010 -3.18055e-015 8.94531e-016
Spine  2.43775 -1.59139 -8.59823
Spine1  16.3551 -4.45676 8.12014
HEad  -14.1093 6.21359 4.34756
LeftShoulder1  0 -2.69403e-036 -1.28585e-037
LeftArm  27.8719 57.3471 -82.2445
LeftForeArm  -49.3119 -27.6317 17.6116
LeftHand  0.907954 6.33789 -4.26043
RightShoulder  -2.48481e-017 0 -8.08114e-019
RightArm  44.2126 -57.3185 86.1538
RightForeArm  -52.8196 21.4302 -19.9863
RightHand  1.46428 -12.2451 -5.0511
LeftUpLeg  -20.0847 -16.3319 3.6191
LeftLeg  18.2814 -2.53222 2.24441
LeftFoot  12.9431 1.14284 -4.7132
LeftToes  -8.00353e-011 5.68142e-011 4.78552e-012
90
root  27.4067 45.0086 -0.867628 -51.294 86.3415 -55.1946
RightUpLeg  -20.3396 1.80528 6.19481
RightLeg  19.6451 14.0608 2.0458
RightFoot  17.1321 -1.65005 6.07637
RightToes  1.74622e-010 -3.18055e-015 8.94531e-016
Spine  3.7907 -1.67922 -9.36415
Spine1  15.6139 -5.01339 9.56306
HEad  -15.2032 7.75502 3.81567
LeftShoulder1  0 -2.69403e-036 -1.28585e-037
LeftArm  30.0928 56.7132 -82.3088
LeftForeArm  -50.3743 -26.4539 17.0816
LeftHand  0.922712 6.39697 -5.2222
RightShoulder  -2.48481e-017 0 -8.08114e-019
RightArm  42.3958 -57.8802 86.5606
RightForeArm  -53.1174 21.3153 -19.4195
RightHand  1.45258 -12.203 -4.94269
LeftUpLeg  -22.2197 -12.3914 4.02773
LeftLeg  15.7948 -1.03036 3.19025
LeftFoot  13.1666 1.0607 -4.32188
LeftToes  -8.00353e-011 5.68142e-011 4.78552e-012
91
root  28.8829 43.8737 -0.964429 -54.7995 85.4615 -59.5073
RightUpLeg  -22.3971 0.940426 8.09758
RightLeg  16.8203 14.7841 2.15229
RightFoot  16.8883 -2.83149 10.5127
RightToes  1.74622e-010 -3.18055e-015 8.94531e-016
Spine  5.56838 -1.49669 -9.66047
Spine1  14.164 -5.33229 11.2076
HEad  -16.3534 9.08014 3.08177
LeftShoulder1  0 -2.69403e-036 -1.28585e-037
LeftArm  30.81 56.0303 -82.0568
LeftForeArm  -50.8015 -25.9789 16.5756
LeftHand  0.927351 6.45343 -5.16497
RightShoulder  -2.48481e-017 0 -8.08114e-019
RightArm  41.0542 -58.3815 86.5885
RightForeArm  -53.1512 21.2526 -19.007
RightHand  1.37208 -11.8387 -4.36334
LeftUpLeg  -23.7314 -10.2226 4.96124
LeftLeg  14.4911 1.96812 4.0103
LeftFoot  16.2501 0.540716 -1.85572
LeftToes  -8.00353e-011 5.68142e-011 4.78552e-012
92
root  30.4387 42.17 -1.10901 -59.3346 84.4012 -63.611
RightUpLeg  -23.6049 1.44709 9.67242
RightLeg  17.5208 14.3312 2.00688
RightFoot  18.7516 -3.57942 12.4651
RightToes  1.74622e-010 -3.18055e-015 8.94531e-016
Spine  7.99009 -1.03028 -9.5564
Spine1  13.0232 -5.50835 13.1314
HEad  -18.4023 9.93584 1.51545
LeftShoulder1  0 -2.69403e-036 -1.28585e-037
LeftArm  31.0647 53.8122 -82.3371
LeftForeArm  -49.6301 -25.1024 14.8536
LeftHand  0.881983 6.00201 -4.84501
RightShoulder  -2.48481e-017 0 -8.08114e-019
RightArm  41.2124 -57.7336 85.3982
RightForeArm  -53.4527 21.1592 -17.593
RightHand  1.20958 -11.0592 -3.04181
LeftUpLeg  -25.28 -13.3343 7.56424
LeftLeg  18.7978 4.94265 4.96655
LeftFoot  17.6747 0.50299 -1.61481
LeftToes  -8.00353e-011 5.68142e-011 4.78552e-012
93
root  32.0607 40.0618 -1.33108 -63.5873 83.6942 -66.2734
RightUpLeg  -24.7535 1.81394 10.5759
RightLeg  25.2273 15.2837 3.07246
RightFoot  14.8476 -1.82256 7.28759
RightToes  1.74622e-010 -3.18055e-015 8.94531e-016
Spine  10.2817 -0.498854 -8.84282
Spine1  12.7745 -5.60585 14.7779
HEad  -21.0502 10.0414 -0.889318
LeftShoulder1  0 -2.69403e-036 -1.28585e-037
LeftArm  25.4787 48.6758 -82.9938
LeftForeArm  -40.0522 -22.4355 7.4005
LeftHand  0.81898 5.39094 -4.54542
RightShoulder  -2.48481e-017 0 -8.08114e-019
RightArm  39.1411 -55.4334 83.1185
RightForeArm  -49.698 20.8159 -12.6054
RightHand  1.06629 -10.4753 -1.10141
LeftUpLeg  -26.691 -15.2247 8.02943
LeftLeg  29.0344 1.22077 6.71728
LeftFoot  11.8784 1.23412 -5.33935
LeftToes  -8.00353e-011 5.68142e-011 4.78552e-012
94
root  33.7162 37.7479 -1.58336 -65.6412 84.155 -67.5282
RightUpLeg  -27.4797 1.72026 10.3771
RightLeg  38.5153 14.7975 4.17653
RightFoot  1.73959 0.360124 -2.76356
RightToes  1.74622e-010 -3.18055e-015 8.94531e-016
Spine  11.2366 -0.315668 -8.24188
Spine1  12.227 -5.6505 15.5585
HEad  -23.3348 9.55065 -2.78517
LeftShoulder1  0 -2.69403e-036 -1.28585e-037
LeftArm  15.2154 41.8277 -83.1945
LeftForeArm  -26.9068 -16.6554 -1.66845
LeftHand  0.802001 5.43828 -3.33002
RightShoulder  -2.48481e-017 0 -8.08114e-019
RightArm  33.9784 -52.5781 81.0265
RightForeArm  -40.9499 19.4091 -6.03285
RightHand  1.03128 -10.689 0.45008
LeftUpLeg  -28.8096 -16.486 6.69053
LeftLeg  41.8644 -2.99251 7.7997
LeftFoot  -1.3342 0.899045 -8.52909
LeftToes  -8.00353e-011 5.68142e-011 4.78552e-012
95
root  35.3388 35.7 -1.76688 -68.4616 85.9326 -71.7546
RightUpLeg  -31.4721 2.32241 9.03298
RightLeg  50.3843 11.4491 1.53843
RightFoot  -13.8645 -0.0526228 -8.86706
RightToes  1.74622e-010 -3.18055e-015 8.94531e-016
Spine  11.0385 -0.611311 -8.77158
Spine1  10.0246 -5.6149 15.338
HEad  -25.8103 8.94614 -2.95665
LeftShoulder1  0 -2.69403e-036 -1.28585e-037
LeftArm  8.84169 35.8575 -82.7756
LeftForeArm  -21.5136 -12.667 -4.95769
LeftHand  0.817868 5.95045 -0.368601
RightShoulder  -2.48481e-017 0 -8.08114e-019
RightArm  29.5323 -50.3893 80.0388
RightForeArm  -33.9697 18.0907 -3.12102
RightHand  1.12552 -11.5734 0.229767
LeftUpLeg  -31.7319 -16.6072 4.11914
LeftLeg  52.1752 -5.16817 9.08354
LeftFoot  -16.0734 -0.223872 -7.53818
LeftToes  -8.00353e-011 5.68142e-011 4.78552e-012
96
root  36.9096 34.6299 -1.87858 -84.1606 87.2075 -89.7292
RightUpLeg  -33.6871 3.84776 8.0751
RightLeg  56.0625 8.64159 -2.90894
RightFoot  -23.4035 -0.73386 -8.23182
RightToes  1.74622e-010 -3.18055e-015 8.94531e-016
Spine  11.0981 -1.10112 -8.969
Spine1  7.03677 -5.55649 14.5458
HEad  -29.1693 8.53072 -1.84173
LeftShoulder1  0 -2.69403e-036 -1.28585e-037
LeftArm  6.01261 31.8269 -81.8899
LeftForeArm  -20.3551 -13.6073 -3.64603
LeftHand  0.737003 5.77412 3.46083
RightShoulder  -2.48481e-017 0 -8.08114e-019
RightArm  27.2738 -48.7067 79.7635
RightForeArm  -33.383 18.4989 -4.67204
RightHand  1.32598 -12.3857 -2.06475
LeftUpLeg  -33.1764 -16.0031 2.25662
LeftLeg  56.7782 -5.75295 10.2737
LeftFoot  -25.9088 -0.586137 -4.64501
LeftToes  -8.00353e-011 5.68142e-011 4.78552e-012
